<?xml version="1.0" standalone="no"?>
<!DOCTYPE svg PUBLIC "-//W3C//DTD SVG 20010904//EN"
 "http://www.w3.org/TR/2001/REC-SVG-20010904/DTD/svg10.dtd">
<svg version="1.0" xmlns="http://www.w3.org/2000/svg"
 width="512.000000pt" height="512.000000pt" viewBox="0 0 512.000000 512.000000"
 preserveAspectRatio="xMidYMid meet">
<metadata>
Created by potrace 1.14, written by Peter Selinger 2001-2017
</metadata>
<g transform="translate(0.000000,512.000000) scale(0.100000,-0.100000)"
fill="#000000" stroke="none">
<path d="M1345 3990 c-148 -21 -271 -85 -385 -199 -149 -150 -200 -282 -200
-521 0 -162 20 -257 76 -359 49 -90 94 -141 177 -205 94 -72 213 -130 466
-228 251 -97 359 -152 436 -220 119 -107 165 -218 165 -400 0 -197 -68 -328
-222 -428 -94 -61 -155 -73 -364 -68 -175 4 -180 4 -244 34 -88 42 -159 100
-205 169 -56 86 -75 156 -75 286 l0 109 -27 -5 c-95 -17 -209 -35 -215 -35
-14 0 -8 -204 7 -265 49 -192 192 -369 370 -458 126 -63 160 -70 382 -75 242
-5 309 6 452 75 79 38 107 58 180 131 95 96 139 163 179 274 26 69 27 82 27
258 0 206 -9 251 -71 370 -102 196 -250 298 -679 470 -216 87 -290 123 -371
183 -74 55 -125 115 -161 193 -27 56 -28 66 -28 204 0 141 1 147 31 210 63
133 193 234 333 260 70 13 243 13 312 0 128 -25 251 -112 308 -221 45 -83 61
-148 61 -246 0 -96 -14 -89 140 -65 l105 17 3 71 c4 102 -20 204 -74 314 -84
169 -249 305 -434 356 -65 18 -364 27 -455 14z"/>
<path d="M3419 3990 c-259 -41 -470 -221 -557 -475 l-27 -80 -3 -840 c-3 -955
-5 -930 75 -1094 37 -78 59 -109 127 -176 66 -67 99 -91 176 -129 129 -63 197
-76 410 -76 213 0 281 13 409 76 166 82 285 222 350 412 l26 77 0 865 c0 805
-1 869 -18 930 -68 243 -254 430 -492 495 -70 19 -386 29 -476 15z m384 -245
c182 -38 323 -191 347 -377 13 -99 13 -1533 0 -1623 -22 -149 -117 -278 -255
-346 l-70 -34 -205 0 -205 0 -70 34 c-134 66 -232 196 -255 337 -6 34 -10 382
-10 829 0 838 1 855 56 956 59 108 179 198 296 224 84 18 286 18 371 0z"/>
</g>
</svg>
